/* XPM */
static char *f1cd7bcb82b84c63d5824a2d2d8aa4f2ugbPg1LBplLSpbTz[] = {
/* columns rows colors chars-per-pixel */
"16 16 12 1 ",
"  c gray10",
". c #452E25",
"X c #58362A",
"o c #6E492F",
"O c #A84D00",
"+ c #D28100",
"@ c #EBBB00",
"# c #FDFF00",
"$ c #B38047",
"% c #D09F69",
"& c #B1D354",
"* c #FFFFBB",
/* pixels */
"&&&&&&&&&&&&&&&&",
"&&&&&&&&&&&&&&&&",
"&&&&&&&&&&&&&&&&",
"&&&          &&&",
"&& @@$$$$$$@@ &&",
"& +**%%%%%%**+ &",
"& @**$$$$$$**@ &",
"& @##%%%%%%##@ &",
"& #@@$****$@@# &",
"& ****####**** &",
"& +++O@..@O+++ &",
"&& OOX++++XOO &&",
"&& ++oooooo++ &&",
"&&            &&",
"&&&&&&&&&&&&&&&&",
"&&&&&&&&&&&&&&&&"
};
