/* XPM */
static char *cec79512858f4f519cd3178609a731f4Oxy0VN9tof7nAwlD[] = {
/* columns rows colors chars-per-pixel */
"16 16 14 1 ",
"  c gray9",
". c #373737",
"X c #7E7E7E",
"o c #93674D",
"O c #BC8B4D",
"+ c #D3A061",
"@ c #B1D354",
"# c #44A7B1",
"$ c #4EBCB9",
"% c #60CDCA",
"& c #A0A2A5",
"* c #AEB1B4",
"= c #BBBEC2",
"- c #CED1D5",
/* pixels */
"@@@@@@@@@      @",
"@@@@@    $$$$$$ ",
"@    $$$$###### ",
" $$$$####$$$$$$ ",
" ####$$$$###### ",
" $$$$####$$$$$$ ",
" ####$$$$###### ",
" $$$$####$$$$$$ ",
" ####$$$$%%%%%% ",
" $$$$%%%%###### ",
" %%%%####XXXXX @",
" ####XXXX=&&== @",
"@.XXX===oooo== @",
"@.==**==o++o--++",
"@.=&&==-o++o==O.",
"@.--====o++o==O."
};
