/* XPM */
static char *_f501b8b82a146adaae1f7bc947cdb7fUtYAbGAeFd5mzcEe[] = {
/* columns rows colors chars-per-pixel */
"16 16 16 1 ",
"  c gray9",
". c #515151",
"X c #99703B",
"o c #93674D",
"O c #C78127",
"+ c #E9A62D",
"@ c #EFC135",
"# c #D3A061",
"$ c #B1D354",
"% c #F7E240",
"& c #349AA4",
"* c #4EBCB9",
"= c #818181",
"- c #B1B1B1",
"; c #FFE4A5",
": c #F4F4F4",
/* pixels */
"$$$$$$$$$$$$$$$$",
"$$ $$$    $$$ $$",
"$ * $ ---- $ * $",
"$ ** =----= ** $",
"$$ *&======&*  $",
"$$$  =----=   : ",
"$ $ ; *  * ;--: ",
" :   O;%%;O .-: ",
" :-- +@  @+ X  $",
" :-.-+O  O+-# $$",
"$  X=O.++.O=# $$",
"$$ # ..OO..  $$$",
"$$ # oo  oo $$$$",
"$$$ $  $$  $$$$$",
"$$$$$$$$$$$$$$$$",
"$$$$$$$$$$$$$$$$"
};
